<svg id="图层_1" data-name="图层 1" xmlns="http://www.w3.org/2000/svg" viewBox="0 0 40 40"><defs><style>.cls-1{fill:#e42429;}.cls-2{fill:#f39500;}</style></defs><title>icon_weibo_pc</title><path class="cls-1" d="M20,40A20,20,0,1,1,40,20,20,20,0,0,1,20,40ZM20,1A19,19,0,1,0,39,20,19,19,0,0,0,20,1Z"/><path d="M18.79,23.48a.52.52,0,0,1-.62.23.37.37,0,0,1-.16-.55.51.51,0,0,1,.61-.23.37.37,0,0,1,.18.55M17.64,25a1.36,1.36,0,0,1-1.66.55,1,1,0,0,1-.37-1.47,1.37,1.37,0,0,1,1.63-.56,1,1,0,0,1,.4,1.47m1.31-4a3.91,3.91,0,0,0-4.41,2,2.73,2.73,0,0,0,1.71,3.88,3.88,3.88,0,0,0,4.66-2,2.74,2.74,0,0,0-2-3.83"/><path class="cls-2" d="M29.24,12.84A5.72,5.72,0,0,0,23.74,11a.85.85,0,0,0-.64,1,.83.83,0,0,0,1,.65A4.07,4.07,0,0,1,28,14a4.22,4.22,0,0,1,.86,4.08.85.85,0,0,0,.54,1.07.83.83,0,0,0,1-.54h0a5.93,5.93,0,0,0-1.21-5.74"/><path class="cls-2" d="M27.11,18.43A.72.72,0,0,0,28,18h0a2.89,2.89,0,0,0-.59-2.8,2.78,2.78,0,0,0-2.68-.88.73.73,0,0,0-.55.87.72.72,0,0,0,.85.56h0a1.37,1.37,0,0,1,1.31.43,1.41,1.41,0,0,1,.29,1.37.73.73,0,0,0,.46.92"/><path class="cls-1" d="M18.44,27.78c-3.61.36-6.73-1.3-7-3.71s2.51-4.66,6.12-5,6.73,1.3,7,3.7-2.5,4.66-6.12,5m7.23-8c-.31-.09-.52-.16-.36-.57a2.35,2.35,0,0,0,0-2.21c-.71-1-2.65-1-4.87,0,0,0-.7.31-.52-.25a2.57,2.57,0,0,0-.24-2.59c-1.21-1.23-4.41,0-7.16,2.84-2.06,2.09-3.25,4.31-3.25,6.22,0,3.67,4.63,5.89,9.16,5.89,5.94,0,9.88-3.5,9.88-6.28a3.35,3.35,0,0,0-2.65-3"/></svg>